<?xml version="1.0" encoding="UTF-8"?>
<svg width="752pt" height="752pt" version="1.1" viewBox="0 0 752 752" xmlns="http://www.w3.org/2000/svg" fill="#ddd">
 <path d="m220.61 176.21v-14.801c0-4.0859 3.3125-7.3984 7.3984-7.3984 4.0859 0 7.3984 3.3125 7.3984 7.3984v14.801c0 4.0859-3.3125 7.3984-7.3984 7.3984-4.0859 0-7.3984-3.3125-7.3984-7.3984zm162.79 332.98v-29.598c0-4.0859 3.3125-7.3984 7.3984-7.3984h44.398c1.9609 0 3.8438 0.77734 5.2305 2.1641 1.3906 1.3906 2.168 3.2695 2.168 5.2344v29.598c0 1.9648-0.77734 3.8438-2.168 5.2344-1.3867 1.3867-3.2695 2.168-5.2305 2.168h-44.398c-4.0859 0-7.3984-3.3164-7.3984-7.4023zm14.801-7.3984h29.598v-14.801h-29.602zm-36.219-78.086-51.797-103.6h-0.003906c-1.1445-2.293-1.0234-5.0195 0.32422-7.1992 1.3477-2.1836 3.7305-3.5117 6.2969-3.5117h162.79c2.8008 0 5.3633 1.5859 6.6172 4.0898l51.797 103.6h0.003906c1.1445 2.293 1.0234 5.0195-0.32422 7.1992-1.3477 2.1836-3.7305 3.5117-6.2969 3.5117h-162.79c-2.8008 0-5.3633-1.5859-6.6172-4.0898zm105.64-10.711-18.5-37h-41.066l17.078 37zm33.297-37h-35.25l18.5 37h35.25zm-61.148-51.797 18.5 37h35.25l-18.5-37zm-55.621 0 17.074 37h40.496l-18.5-37zm-36.875 37h37.648l-15.645-33.898c-0.4375-0.97656-0.65625-2.0352-0.63672-3.1016h-39.867zm7.3984 14.801 18.5 37h35.656l-17.078-37zm-82.27-148c0 1.9609 0.77734 3.8438 2.168 5.2305 1.3867 1.3906 3.2695 2.168 5.2305 2.168h14.801c4.0859 0 7.3984-3.3125 7.3984-7.3984 0-4.0859-3.3125-7.3984-7.3984-7.3984h-14.801c-4.0859 0-7.3984 3.3125-7.3984 7.3984zm-7.3984-29.598c2.1875 0 4.2656-0.96484 5.6719-2.6406l9.1992-10.969c2.6289-3.1328 2.2188-7.8008-0.91016-10.43-3.1328-2.625-7.8008-2.2188-10.43 0.91406l-9.2031 10.965c-1.8477 2.2031-2.2539 5.2773-1.0391 7.8867 1.2148 2.6055 3.832 4.2734 6.7109 4.2734zm-66.598 29.598c0-7.8516 3.1172-15.379 8.668-20.93s13.078-8.668 20.93-8.668c7.8516 0 15.379 3.1172 20.93 8.668s8.668 13.078 8.668 20.93c0 7.8516-3.1172 15.379-8.668 20.93s-13.078 8.668-20.93 8.668c-7.8477-0.007813-15.371-3.1289-20.922-8.6797-5.5469-5.5469-8.668-13.07-8.6758-20.918zm14.801 0h-0.003907c0 3.9258 1.5586 7.6875 4.3359 10.465 2.7734 2.7734 6.5391 4.3359 10.465 4.3359 3.9258 0 7.6875-1.5625 10.465-4.3359 2.7734-2.7773 4.3359-6.5391 4.3359-10.465 0-3.9258-1.5625-7.6914-4.3359-10.465-2.7773-2.7773-6.5391-4.3359-10.465-4.3359-3.9258 0.003907-7.6875 1.5664-10.461 4.3398s-4.3359 6.5352-4.3398 10.461zm258.99 281.19v-29.598c0-4.0859 3.3125-7.3984 7.3984-7.3984h44.398c1.9609 0 3.8438 0.77734 5.2305 2.1641 1.3906 1.3906 2.168 3.2695 2.168 5.2344v29.598c0 1.9648-0.77734 3.8438-2.168 5.2344-1.3867 1.3867-3.2695 2.168-5.2305 2.168h-44.398c-4.0859 0-7.3984-3.3164-7.3984-7.4023zm14.801-7.3984h29.598v-14.801h-29.602zm111 59.199v29.598h-0.003906c0 1.9609-0.78125 3.8438-2.168 5.2305s-3.2695 2.168-5.2305 2.168h-429.18c-4.0859 0-7.3984-3.3125-7.3984-7.3984v-29.602c0-4.0859 3.3125-7.3984 7.3984-7.3984h29.598v-96.195h-29.598c-2.6133 0-5.0312-1.375-6.3633-3.6211s-1.3828-5.0312-0.13281-7.3242l88.797-162.79c1.3477-2.2852 3.8398-3.6562 6.4961-3.5664v-0.28906h140.62l-0.023438-42.773c-1.9805 0.13672-4.1836 0.23438-6.5742 0.23438-9.0312 0.26172-18.008-1.5156-26.258-5.1992-26.762-13.402-33.234-44.961-33.496-46.297v-0.003906c-0.39062-1.9844 0.046875-4.0391 1.2148-5.6914 1.1641-1.6523 2.9531-2.7578 4.9531-3.0547 16.047-1.9258 32.324-0.42188 47.746 4.4062 7.2266 2.3594 13.59 6.8164 18.273 12.805 4.6836 5.9844 7.4805 13.23 8.0312 20.812 3.7812-3.6758 8.3438-6.4531 13.348-8.125 15.98-4.8047 33.02-4.8047 49 0 3.6094 1.2109 5.7148 4.9609 4.8633 8.6719-4.8281 18.031-16.945 33.238-33.445 41.965-6.0977 2.8281-12.766 4.2109-19.484 4.043-4.4922-0.03125-8.9688-0.45703-13.383-1.2812l0.011718 19.488h103.42c2.8047 0 5.3672 1.5859 6.6211 4.0977l81.262 162.79c1.1445 2.293 1.0234 5.0156-0.32031 7.1953-1.3438 2.1797-3.7227 3.5117-6.2852 3.5156h-7.1055v96.195h7.4023c1.9609 0 3.8438 0.78125 5.2305 2.168s2.168 3.2695 2.168 5.2305zm-192.04-315.66c8.5469 2.3125 17.594 1.9531 25.93-1.0234 10.367-5.4531 18.543-14.309 23.16-25.078-10.754-2.0469-21.84-1.457-32.312 1.7188-4.8047 2.0781-8.9297 5.4648-11.895 9.7773-2.9688 4.3125-4.6602 9.375-4.8828 14.605zm-15.383-23.105c-1.3672-18.852-8.8711-24.086-16.918-26.766h0.003906c-10.434-3.2461-21.332-4.7383-32.254-4.4141 4.0664 11.762 12.281 21.637 23.105 27.773 8.2734 3.2656 17.227 4.4375 26.062 3.4062zm-127.91 72.371 80.727 147.99h235.22l-73.996-147.99zm83.73 162.79v96.195h221.99v-96.195zm-59.199 14.801v81.395h44.398v-96.195h-29.598c-2.8008 0-5.3633-1.582-6.6172-4.0898l-45.18-90.363-44.398 88.797v101.85h22.199v-81.395c0-4.0898 3.3125-7.4023 7.3984-7.4023h44.398c1.9648 0 3.8438 0.78125 5.2344 2.168 1.3867 1.3867 2.1641 3.2695 2.1641 5.2344zm-44.398 7.3984 0.003906 73.996h29.598v-73.996zm-48.969-37 49.754-99.508-0.003906 0.003906c1.3906-2.332 3.9062-3.7617 6.6211-3.7617 2.7148 0 5.2305 1.4297 6.6172 3.7617l49.754 99.504h19.957l-76.328-139.94-76.332 139.94zm389.36 125.8h-414.38v14.801l414.38-0.003906zm-396.94-371.71c3.1328 2.625 7.8008 2.2188 10.43-0.91016 2.625-3.1328 2.2188-7.8008-0.91016-10.43l-10.969-9.2031c-3.1328-2.6289-7.8008-2.2227-10.43 0.91016-2.625 3.1328-2.2188 7.8008 0.91406 10.43zm-24.84 38.727h14.801c4.0859 0 7.3984-3.3125 7.3984-7.3984 0-4.0859-3.3125-7.3984-7.3984-7.3984h-14.801c-4.0859 0-7.3984 3.3125-7.3984 7.3984 0 4.0859 3.3125 7.3984 7.3984 7.3984z"/>
</svg>
