<?xml version="1.0" encoding="UTF-8"?>
<svg width="752pt" height="752pt" version="1.1" viewBox="0 0 752 752" xmlns="http://www.w3.org/2000/svg" fill="#ddd">
 <g>
  <path d="m601.17 436.48-104.84-89.125c-2.0039-1.7109-4.9609-1.707-6.9648-0.003907l-32.367 27.473h-37.297c-0.25391 0-0.50391 0.015625-0.75781 0.050781-13.969 1.9805-27.844 3.5703-42.223 4.9062-16.473-23.137-23.406-48.926-23.891-50.793-0.59375-10.793-9.4766-19.418-20.418-19.418-9.4102 0-17.281 6.4062-19.691 15.062h-15.836v-78.93h15.809c2.3828 8.6992 10.273 15.145 19.719 15.145 11.324 0 20.531-9.207 20.531-20.527 0-11.32-9.207-20.527-20.531-20.527-9.4414 0-17.336 6.4453-19.719 15.145h-16.629l-40.93-70.164c-0.96094-1.6523-2.7344-2.668-4.6445-2.668-1.9219 0-3.6875 1.0195-4.6523 2.6719l-40.855 70.164h-16.629c-2.3828-8.6992-10.273-15.145-19.719-15.145-11.324 0-20.531 9.207-20.531 20.527 0 11.32 9.207 20.527 20.531 20.527 9.4414 0 17.336-6.4453 19.719-15.145h15.816v78.93l-15.844-0.003907c-2.4102-8.6523-10.277-15.059-19.691-15.059-11.324 0-20.531 9.2109-20.531 20.531 0 9.9375 7.1016 18.238 16.496 20.121 2.8359 6.7539 11.812 20.031 39.57 30.25v38.586l-30.355 164.48c-0.46875 2.5391 0.93359 5.0547 3.3438 5.9961 2.418 0.92969 5.1367 0.035156 6.5117-2.1602l49.992-79.852 33.699-0.007813 49.988 79.859c0.03125 0.046875 0.085937 0.0625 0.11719 0.10938 3.0625 4.5742 10.758 2.0156 9.7344-3.8867-0.003906-0.019531 0.003907-0.035156 0-0.054687l-30.32-164.29v-25.113c2.8008 0.042969 5.5859 0.09375 8.5078 0.09375 19.359 0 41.438-0.99219 66.434-3.1836 9.3516 11.906 20.113 21.543 32.062 28.863l-20.207 17.152c-1.7148 1.457-2.3477 3.8359-1.5703 5.957 0.77734 2.1211 2.7969 3.5273 5.0508 3.5273h21.59v126.72c0 2.9727 2.4102 5.3828 5.3828 5.3828h157.27c2.9727 0 5.3828-2.4102 5.3828-5.3828l-0.003906-126.73h21.59c0.050781 0.003907 0.10547 0 0.14062 0 2.9766 0 5.3828-2.4102 5.3828-5.3828 0-2-1.0938-3.75-2.7227-4.6758zm-268.75-116.14c5.3867 0 9.7695 4.3828 9.7695 9.7695s-4.3789 9.7656-9.7695 9.7656c-5.3828 0-9.7617-4.3789-9.7617-9.7656s4.3789-9.7695 9.7617-9.7695zm-123.26 176.43 41.469-35.234 41.449 35.215zm67.707-71.648-26.234 22.289-26.238-22.289zm-63.707 4.5781 29.16 24.777-40.008 33.988zm45.781 24.773 28.969-24.613 10.773 58.379zm-37.07-40.145 21.961-24.184c4.6094 0.69531 9.5 1.3086 14.652 1.8398l20.289 22.34zm-0.078126-89.691 28.527-31.414 28.527 31.414zm57.137 10.852-28.605 31.5-28.605-31.5zm-21.336-50.273 28.535-31.422v62.848zm21.305-39.477-28.574 31.469-28.574-31.469zm-35.848 39.477-28.109 30.957v-61.906zm0 89.781-3.4062 3.75c-9.5195-1.6328-17.73-3.582-24.703-5.7305v-28.969zm14.543-0.003907 28.535-31.422v39.637c-7.9883-0.28125-15.41-0.74219-22.305-1.3555zm74.828-144.43c5.3867 0 9.7695 4.3789 9.7695 9.7656s-4.3789 9.7656-9.7695 9.7656c-5.3828 0-9.7617-4.3789-9.7617-9.7656s4.3789-9.7656 9.7617-9.7656zm-81.918-52.383 33.105 56.766h-66.164zm-81.859 71.91c-5.3867 0-9.7695-4.3789-9.7695-9.7656 0-5.3867 4.3789-9.7656 9.7695-9.7656 5.3828 0 9.7617 4.3789 9.7617 9.7656 0 5.3867-4.3789 9.7656-9.7617 9.7656zm-9.7656 80.02c0-5.3867 4.3789-9.7695 9.7695-9.7695 5.3828 0 9.7617 4.3828 9.7617 9.7695-0.003906 5.3828-4.3828 9.7617-9.7656 9.7617-5.3867 0-9.7656-4.3789-9.7656-9.7617zm17.281 19.055c5.9844-2.3711 10.539-7.4727 12.23-13.762h15.789v33.793c-17.398-7.0781-24.887-15.109-28.02-20.031zm55.133 38.777-16.352 18.004v-21.953c4.957 1.4297 10.402 2.75 16.352 3.9492zm-41.766 169.8 9.2656-50.211 22.172-0.003906zm112.71-50.234 9.2734 50.234-31.449-50.23zm-16.109-101.1-11.93-13.137c3.8398 0.24219 7.8203 0.43359 11.93 0.58203zm10.766-22.945v-48.066h15.781c2.3516 8.7461 10.27 15.234 19.746 15.234 5.5234 0 10.52-2.2148 14.211-5.7695 3.4609 9.4805 9.1992 22.754 17.805 35.992-25.816 2.0898-48.238 2.8711-67.543 2.6094zm87.875 6.3164c11.91-1.1992 23.613-2.5391 35.32-4.1953h24.238l-31.777 26.969c-10.199-5.7539-19.504-13.371-27.781-22.773zm125.37 178.09v-71.77h32.332v71.773zm55.883 0.011718h-12.789v-77.164c0-2.9727-2.4102-5.3828-5.3828-5.3828h-43.094c-2.9727 0-5.3828 2.4102-5.3828 5.3828v77.164h-79.855v-121.34h146.5zm-164.19-132.11 91.023-77.262 90.879 77.262h-181.9z"/>
  <path d="m439.98 511.38h38.668c2.9727 0 5.3828-2.4102 5.3828-5.3828v-38.668c0-2.9727-2.4102-5.3828-5.3828-5.3828h-38.668c-2.9727 0-5.3828 2.4102-5.3828 5.3828v38.668c0 2.9727 2.4141 5.3828 5.3828 5.3828zm5.3828-38.672h27.902v27.906h-27.902z"/>
  <path d="m473.93 413.03c0 10.387 8.4492 18.836 18.836 18.836s18.828-8.4492 18.828-18.836c0-10.387-8.4453-18.832-18.828-18.832-10.383 0-18.836 8.4492-18.836 18.832zm26.902 0c0 4.4492-3.6172 8.0742-8.0664 8.0742s-8.0742-3.6211-8.0742-8.0742c0-4.4492 3.6211-8.0703 8.0742-8.0703 4.4492 0.003907 8.0664 3.6211 8.0664 8.0703z"/>
 </g>
</svg>
